STARTFONT 2.1
FONT -FontForge-Concert One-Book-R-Normal--32-310-75-75-P-158-ISO10646-1
SIZE 31 75 75
FONTBOUNDINGBOX 27 37 -1 -6
COMMENT "Generated by fontforge, http://fontforge.sourceforge.net"
COMMENT "Copyright (c) 2011, 2011 Johan Kallas (johankallas@gmail.com), Copyright (c) 2011, 2011 Mihkel Virkus (mihkelvirkus@gmail.com), with Reserved Font Name Concert."
STARTPROPERTIES 39
FOUNDRY "FontForge"
FAMILY_NAME "Concert One"
WEIGHT_NAME "Book"
SLANT "R"
SETWIDTH_NAME "Normal"
ADD_STYLE_NAME ""
PIXEL_SIZE 32
POINT_SIZE 310
RESOLUTION_X 75
RESOLUTION_Y 75
SPACING "P"
AVERAGE_WIDTH 158
CHARSET_REGISTRY "ISO10646"
CHARSET_ENCODING "1"
FONTNAME_REGISTRY ""
CHARSET_COLLECTIONS "ISO10646-1"
FONT_NAME "ConcertOne-Regular"
FACE_NAME "Concert One"
COPYRIGHT "Copyright (c) 2011, 2011 Johan Kallas (johankallas@gmail.com), Copyright (c) 2011, 2011 Mihkel Virkus (mihkelvirkus@gmail.com), with Reserved Font Name Concert."
FONT_VERSION "1.003"
FONT_ASCENT 26
FONT_DESCENT 6
UNDERLINE_POSITION -3
UNDERLINE_THICKNESS 2
X_HEIGHT 15
CAP_HEIGHT 21
RAW_ASCENT 799
RAW_DESCENT 200
NORM_SPACE 12
RELATIVE_WEIGHT 40
RELATIVE_SETWIDTH 50
SUPERSCRIPT_X 0
SUPERSCRIPT_Y 15
SUPERSCRIPT_SIZE 20
SUBSCRIPT_X 0
SUBSCRIPT_Y 4
SUBSCRIPT_SIZE 20
AVG_LOWERCASE_WIDTH 155
AVG_UPPERCASE_WIDTH 170
ENDPROPERTIES
CHARS 232
STARTCHAR space
ENCODING 32
SWIDTH 389 0
DWIDTH 12 0
BBX 1 1 0 0
BITMAP
00
ENDCHAR
STARTCHAR exclam
ENCODING 33
SWIDTH 394 0
DWIDTH 13 0
BBX 5 22 4 0
BITMAP
70
F8
F8
F8
F8
F8
F8
F8
F8
F8
F0
70
70
70
70
00
00
70
F8
F8
F8
70
ENDCHAR
STARTCHAR quotedbl
ENCODING 34
SWIDTH 438 0
DWIDTH 14 0
BBX 10 8 2 14
BITMAP
E380
F3C0
F3C0
F3C0
F3C0
F3C0
F3C0
F380
ENDCHAR
STARTCHAR numbersign
ENCODING 35
SWIDTH 619 0
DWIDTH 20 0
BBX 16 17 2 2
BITMAP
0718
071C
0738
7FFF
7FFF
7FFF
0E38
0E38
0E70
0E70
FFFE
FFFE
FFFE
1C70
1CE0
1CE0
1860
ENDCHAR
STARTCHAR dollar
ENCODING 36
SWIDTH 513 0
DWIDTH 17 0
BBX 12 21 2 0
BITMAP
0F00
0F00
0F00
1F80
7FE0
FFF0
F9F0
F9F0
FCE0
7F80
3FE0
1FF0
73F0
F9F0
F9F0
FFF0
7FE0
3FC0
0F00
0F00
0E00
ENDCHAR
STARTCHAR percent
ENCODING 37
SWIDTH 724 0
DWIDTH 24 0
BBX 21 22 1 0
BITMAP
3E0300
7F0780
FF8780
E38F80
E38F00
E39F00
FF9E00
7F3C00
3E3C00
007800
007800
00F000
00F000
01E3E0
01E7F0
03CFF8
07CE38
078E38
0F8E38
0F0FF8
0F07F0
0603E0
ENDCHAR
STARTCHAR ampersand
ENCODING 38
SWIDTH 632 0
DWIDTH 20 0
BBX 17 22 2 0
BITMAP
07C000
1FE000
3FF000
3FF800
3CF800
3C7800
3C7800
3CF800
1EF000
0FE000
1FC000
3FC700
7FEF80
FDFF80
F8FF00
F8FE00
F87E00
FCFE00
7FFF00
7FFF80
3FEF80
0F8700
ENDCHAR
STARTCHAR quotesingle
ENCODING 39
SWIDTH 254 0
DWIDTH 8 0
BBX 4 8 2 14
BITMAP
E0
F0
F0
F0
F0
F0
F0
F0
ENDCHAR
STARTCHAR parenleft
ENCODING 40
SWIDTH 433 0
DWIDTH 14 0
BBX 9 28 4 -3
BITMAP
1F00
3F00
7F80
FF00
F800
F000
F000
F000
F000
F000
F000
F000
F000
F000
F000
F000
F000
F000
F000
F000
F000
F000
F000
F800
7F00
7F00
3F80
1F00
ENDCHAR
STARTCHAR parenright
ENCODING 41
SWIDTH 433 0
DWIDTH 14 0
BBX 9 28 1 -3
BITMAP
7C00
7E00
FF00
7F80
0F80
0780
0780
0780
0780
0780
0780
0780
0780
0780
0780
0780
0780
0780
0780
0780
0780
0780
0780
0F80
7F00
7F00
FE00
7C00
ENDCHAR
STARTCHAR asterisk
ENCODING 42
SWIDTH 583 0
DWIDTH 19 0
BBX 16 17 1 3
BITMAP
0180
03C0
03C0
73CE
FBDF
FFFF
7FFE
1FF8
0FF0
1FF8
7FFE
FFFF
7BDF
63C6
03C0
03C0
0180
ENDCHAR
STARTCHAR plus
ENCODING 43
SWIDTH 538 0
DWIDTH 17 0
BBX 12 12 3 5
BITMAP
0E00
0F00
0F00
0F00
FFE0
FFF0
FFF0
FFE0
0F00
0F00
0F00
0E00
ENDCHAR
STARTCHAR comma
ENCODING 44
SWIDTH 291 0
DWIDTH 9 0
BBX 5 8 2 -3
BITMAP
70
F8
F8
F8
78
38
30
60
ENDCHAR
STARTCHAR hyphen
ENCODING 45
SWIDTH 471 0
DWIDTH 15 0
BBX 11 4 2 7
BITMAP
FFE0
FFE0
FFE0
FFE0
ENDCHAR
STARTCHAR period
ENCODING 46
SWIDTH 291 0
DWIDTH 9 0
BBX 5 5 2 0
BITMAP
70
F8
F8
F8
70
ENDCHAR
STARTCHAR slash
ENCODING 47
SWIDTH 442 0
DWIDTH 14 0
BBX 12 22 1 0
BITMAP
0070
00F0
00F0
01E0
01E0
03C0
03C0
07C0
0780
0780
0F00
0F00
1E00
1E00
3E00
3C00
3C00
7800
7800
F000
F000
6000
ENDCHAR
STARTCHAR zero
ENCODING 48
SWIDTH 545 0
DWIDTH 18 0
BBX 14 22 2 0
BITMAP
0FC0
3FF0
7FF8
7FF8
FCFC
F87C
F87C
F87C
F87C
F87C
F87C
F87C
F87C
F87C
F87C
F87C
F87C
FCFC
7FF8
7FF8
3FF0
0FC0
ENDCHAR
STARTCHAR one
ENCODING 49
SWIDTH 383 0
DWIDTH 13 0
BBX 10 22 1 0
BITMAP
0380
07C0
1FC0
3FC0
7FC0
FFC0
FFC0
77C0
07C0
07C0
07C0
07C0
07C0
07C0
07C0
07C0
07C0
07C0
07C0
07C0
07C0
0380
ENDCHAR
STARTCHAR two
ENCODING 50
SWIDTH 517 0
DWIDTH 17 0
BBX 15 22 1 0
BITMAP
0FE0
3FF8
7FFC
7FFC
FC7E
F83E
F83E
F83E
207E
01FC
07F8
1FF0
3FE0
3F80
7E00
7C00
7800
7800
7FFC
7FFE
7FFE
3FFC
ENDCHAR
STARTCHAR three
ENCODING 51
SWIDTH 500 0
DWIDTH 16 0
BBX 14 22 1 0
BITMAP
7FF0
7FF8
7FF8
7FF8
00F0
01F0
01E0
03E0
03E0
07F0
03F8
00FC
007C
003C
003C
703C
F03C
F87C
7FF8
7FF8
3FF0
0FC0
ENDCHAR
STARTCHAR four
ENCODING 52
SWIDTH 489 0
DWIDTH 16 0
BBX 13 22 1 0
BITMAP
0700
0F00
0F00
0F00
1F00
1E00
1E00
3E30
3E78
3C78
3C78
7C78
7FF8
7FF8
FFF8
FFF8
7FF8
0078
0078
0078
0078
0070
ENDCHAR
STARTCHAR five
ENCODING 53
SWIDTH 500 0
DWIDTH 16 0
BBX 14 22 1 0
BITMAP
3FF0
3FF8
3FF8
3FF0
3C00
7800
7800
7800
7FC0
7FF0
7FF8
7FF8
387C
003C
003C
703C
F03C
F87C
7FF8
7FF8
3FF0
0FC0
ENDCHAR
STARTCHAR six
ENCODING 54
SWIDTH 484 0
DWIDTH 16 0
BBX 13 22 2 0
BITMAP
0E00
3F00
3F00
7E00
7C00
FC00
F800
F800
FBC0
FFE0
FFF0
FFF8
F9F8
F8F8
F8F8
F8F8
F8F8
F8F8
FFF0
7FF0
3FE0
0F80
ENDCHAR
STARTCHAR seven
ENCODING 55
SWIDTH 494 0
DWIDTH 16 0
BBX 14 22 1 0
BITMAP
7FF8
FFFC
FFFC
7FFC
00F8
01F8
01F0
03E0
07E0
07C0
0FC0
0F80
1F80
1F00
1F00
1F00
1F00
1F00
1F00
1F00
1F00
0E00
ENDCHAR
STARTCHAR eight
ENCODING 56
SWIDTH 498 0
DWIDTH 16 0
BBX 13 22 2 0
BITMAP
1F80
3FE0
7FF0
FFF0
F9F0
F0F0
F0F8
F0F0
F9F0
7FF0
7FE0
FFF0
F9F8
F0F8
F0F8
F0F8
F0F8
F8F8
FFF8
FFF0
7FE0
1FC0
ENDCHAR
STARTCHAR nine
ENCODING 57
SWIDTH 484 0
DWIDTH 16 0
BBX 13 22 1 0
BITMAP
0F80
3FE0
7FF0
7FF0
F9F8
F8F8
F8F8
F8F8
F8F8
F8F8
FFF8
7FF8
3FF8
1EF8
00F8
00F8
01F8
01F0
03F0
07E0
07E0
0380
ENDCHAR
STARTCHAR colon
ENCODING 58
SWIDTH 279 0
DWIDTH 9 0
BBX 5 13 2 0
BITMAP
70
F8
F8
F8
70
00
00
00
70
F8
F8
F8
70
ENDCHAR
STARTCHAR semicolon
ENCODING 59
SWIDTH 291 0
DWIDTH 9 0
BBX 5 16 2 -3
BITMAP
70
F8
F8
F8
70
00
00
00
70
F8
F8
F8
78
38
30
60
ENDCHAR
STARTCHAR less
ENCODING 60
SWIDTH 454 0
DWIDTH 15 0
BBX 9 15 3 2
BITMAP
0300
0780
0F80
1F00
3E00
7C00
F800
F000
F800
7C00
3E00
1F00
0F80
0780
0300
ENDCHAR
STARTCHAR equal
ENCODING 61
SWIDTH 538 0
DWIDTH 17 0
BBX 11 11 3 4
BITMAP
FFE0
FFE0
FFE0
FFE0
0000
0000
0000
FFE0
FFE0
FFE0
FFE0
ENDCHAR
STARTCHAR greater
ENCODING 62
SWIDTH 454 0
DWIDTH 15 0
BBX 9 15 3 2
BITMAP
E000
F000
F800
FC00
7E00
3F00
1F80
0F80
1F80
3F00
7E00
FC00
F800
F000
E000
ENDCHAR
STARTCHAR question
ENCODING 63
SWIDTH 547 0
DWIDTH 18 0
BBX 15 22 1 0
BITMAP
0FE0
3FF8
7FFC
7FFC
FC7E
F83E
F83E
F83E
207C
01FC
03F0
07E0
0780
0780
0780
0000
0000
0380
07C0
07C0
07C0
0380
ENDCHAR
STARTCHAR at
ENCODING 64
SWIDTH 729 0
DWIDTH 23 0
BBX 18 18 2 -1
BITMAP
07F800
1C0600
300300
63CD80
47FE80
8FFE40
8F3E40
8F1E40
8F1E40
8F1E40
8F1E40
8F1E40
CF3E40
4FFE80
67FF80
33CE00
180180
07FF00
ENDCHAR
STARTCHAR A
ENCODING 65
SWIDTH 539 0
DWIDTH 17 0
BBX 15 22 1 0
BITMAP
07C0
0FE0
1FF0
1FF0
1FF0
1EF0
3EF8
3EF8
3C78
7C7C
7C7C
783C
F83E
FFFE
FFFE
FFFE
FFFE
F01E
F01E
F01E
F01E
600C
ENDCHAR
STARTCHAR B
ENCODING 66
SWIDTH 539 0
DWIDTH 17 0
BBX 14 22 2 0
BITMAP
7F80
FFE0
FFF0
FFF8
F8F8
F878
F878
F878
F8F0
FFE0
FFE0
FFF8
F8F8
F87C
F87C
F87C
F87C
F8FC
FFF8
FFF8
FFF0
7FC0
ENDCHAR
STARTCHAR C
ENCODING 67
SWIDTH 541 0
DWIDTH 17 0
BBX 15 22 1 0
BITMAP
07E0
1FF8
7FFC
7FFC
FC7E
F83E
F83E
F83E
F83E
F800
F800
F800
F800
F83E
F83E
F83E
F83E
FC7C
7FFC
7FF8
3FF0
0FC0
ENDCHAR
STARTCHAR D
ENCODING 68
SWIDTH 534 0
DWIDTH 16 0
BBX 13 22 2 0
BITMAP
7F80
FFE0
FFF0
FFF8
F8F8
F878
F878
F878
F878
F878
F878
F878
F878
F878
F878
F878
F878
F8F8
FFF0
FFF0
FFE0
7F80
ENDCHAR
STARTCHAR E
ENCODING 69
SWIDTH 481 0
DWIDTH 15 0
BBX 12 22 2 0
BITMAP
7FF0
FFF0
FFF0
FFF0
F800
F800
F800
F800
F800
FFC0
FFC0
FFC0
FFC0
F800
F800
F800
F800
F800
FFF0
FFF0
FFF0
7FF0
ENDCHAR
STARTCHAR F
ENCODING 70
SWIDTH 458 0
DWIDTH 15 0
BBX 12 22 2 0
BITMAP
7FE0
FFF0
FFF0
FFF0
FFE0
F800
F800
F800
F800
FFC0
FFC0
FFE0
FFC0
FFC0
F800
F800
F800
F800
F800
F800
F800
7000
ENDCHAR
STARTCHAR G
ENCODING 71
SWIDTH 564 0
DWIDTH 18 0
BBX 15 22 2 0
BITMAP
07E0
1FF8
7FFC
7FFC
FC7E
F83E
F83E
F83E
F83E
F800
F800
F800
F8FE
F8FE
F8FE
F81E
F83E
FC7E
7FFE
7FFE
3FEE
0F8E
ENDCHAR
STARTCHAR H
ENCODING 72
SWIDTH 569 0
DWIDTH 18 0
BBX 14 22 2 0
BITMAP
7038
F87C
F87C
F87C
F87C
F87C
F87C
F87C
FFFC
FFFC
FFFC
FFFC
FFFC
F87C
F87C
F87C
F87C
F87C
F87C
F87C
F87C
7038
ENDCHAR
STARTCHAR I
ENCODING 73
SWIDTH 325 0
DWIDTH 11 0
BBX 5 22 3 0
BITMAP
70
F8
F8
F8
F8
F8
F8
F8
F8
F8
F8
F8
F8
F8
F8
F8
F8
F8
F8
F8
F8
70
ENDCHAR
STARTCHAR J
ENCODING 74
SWIDTH 549 0
DWIDTH 17 0
BBX 14 22 1 0
BITMAP
3FF8
7FFC
7FFC
3FFC
007C
007C
007C
007C
007C
007C
007C
007C
007C
F87C
F87C
F87C
F87C
FCFC
7FF8
7FF8
3FF0
0FC0
ENDCHAR
STARTCHAR K
ENCODING 75
SWIDTH 557 0
DWIDTH 18 0
BBX 15 22 2 0
BITMAP
701C
F83C
F87C
F87C
F87C
F8F8
F8F8
F9F8
F9F0
FFF0
FFE0
FFF0
FFF8
F8FC
F87C
F87C
F87C
F87C
F87C
F87E
F87E
703C
ENDCHAR
STARTCHAR L
ENCODING 76
SWIDTH 472 0
DWIDTH 15 0
BBX 12 22 3 0
BITMAP
7000
F800
F800
F800
F800
F800
F800
F800
F800
F800
F800
F800
F800
F800
F800
F800
F800
FFE0
FFE0
FFF0
FFE0
7FE0
ENDCHAR
STARTCHAR M
ENCODING 77
SWIDTH 778 0
DWIDTH 25 0
BBX 20 22 2 0
BITMAP
7C03E0
FE07F0
FE07F0
FF0FF0
FF0FF0
FF0FF0
FF9FF0
F79EF0
F7DEF0
F3FCF0
F3FCF0
F3FCF0
F1F8F0
F1F8F0
F1F8F0
F0F0F0
F060F0
F000F0
F000F0
F000F0
F000F0
7000E0
ENDCHAR
STARTCHAR N
ENCODING 78
SWIDTH 664 0
DWIDTH 21 0
BBX 17 22 2 0
BITMAP
7C0700
FE0780
FE0780
FF0780
FF0780
FF0780
FF8780
F78780
F7C780
F3C780
F3E780
F3E780
F1E780
F1F780
F0F780
F0FF80
F07F80
F07F80
F07F80
F03F80
F03F80
701F00
ENDCHAR
STARTCHAR O
ENCODING 79
SWIDTH 550 0
DWIDTH 18 0
BBX 14 22 2 0
BITMAP
0FC0
3FF0
7FF8
7FF8
FCFC
F87C
F87C
F87C
F87C
F87C
F87C
F87C
F87C
F87C
F87C
F87C
F87C
FCFC
7FF8
7FF8
3FF0
0FC0
ENDCHAR
STARTCHAR P
ENCODING 80
SWIDTH 528 0
DWIDTH 18 0
BBX 15 22 2 0
BITMAP
7FE0
FFF0
FFFC
FFFC
F87E
F83E
F83E
F83E
F83E
F87E
FFFC
FFFC
FFF8
FFE0
F800
F800
F800
F800
F800
F800
F800
7000
ENDCHAR
STARTCHAR Q
ENCODING 81
SWIDTH 564 0
DWIDTH 18 0
BBX 15 24 2 -2
BITMAP
0FC0
3FF0
7FF8
7FF8
FCFC
F87C
F87C
F87C
F87C
F87C
F87C
F87C
F87C
F87C
F87C
F87C
F87C
FCFC
7FF8
7FF8
3FFC
0FFE
001E
000E
ENDCHAR
STARTCHAR R
ENCODING 82
SWIDTH 557 0
DWIDTH 18 0
BBX 15 22 2 0
BITMAP
7FE0
FFF8
FFFC
FFFC
F87E
F83E
F83E
F83E
F87C
FFFC
FFF8
FFE0
FFF8
F8F8
F87C
F87C
F87C
F87C
F87C
F87E
F87E
703C
ENDCHAR
STARTCHAR S
ENCODING 83
SWIDTH 495 0
DWIDTH 16 0
BBX 13 22 2 0
BITMAP
1F80
7FE0
7FF0
F8F0
F8F0
F8F0
F870
FC00
7F00
3F80
1FE0
0FF0
03F0
01F8
70F8
F8F8
F8F8
F8F8
7FF8
7FF0
3FE0
0FC0
ENDCHAR
STARTCHAR T
ENCODING 84
SWIDTH 479 0
DWIDTH 15 0
BBX 15 22 0 0
BITMAP
7FFC
FFFE
FFFE
7FFC
07C0
07C0
07C0
07C0
07C0
07C0
07C0
07C0
07C0
07C0
07C0
07C0
07C0
07C0
07C0
07C0
07C0
0380
ENDCHAR
STARTCHAR U
ENCODING 85
SWIDTH 589 0
DWIDTH 19 0
BBX 15 22 2 0
BITMAP
701C
F83E
F83E
F83E
F83E
F83E
F83E
F83E
F83E
F83E
F83E
F83E
F83E
F83E
F83E
F83E
F83E
FC7E
7FFC
7FFC
3FF8
0FE0
ENDCHAR
STARTCHAR V
ENCODING 86
SWIDTH 488 0
DWIDTH 16 0
BBX 16 22 0 0
BITMAP
700E
F81E
F81F
781E
783E
7C3E
7C3C
3C3C
3C7C
3E7C
3E78
1E78
1E78
1EF8
1FF0
0FF0
0FF0
0FF0
0FE0
07E0
07E0
03C0
ENDCHAR
STARTCHAR W
ENCODING 87
SWIDTH 813 0
DWIDTH 26 0
BBX 26 22 0 0
BITMAP
700E0380
F81E03C0
F81F07C0
783F07C0
783F0780
7C3F0780
7C3F0F80
3C3F8F80
3C7F8F00
3C7F8F00
3E7F8F00
1E7BDF00
1E7BDE00
1EF3DE00
1FF3DE00
0FF3FE00
0FF1FC00
0FE1FC00
0FE1FC00
07E1FC00
07E0F800
03C07000
ENDCHAR
STARTCHAR X
ENCODING 88
SWIDTH 559 0
DWIDTH 18 0
BBX 16 22 1 0
BITMAP
600E
F00F
F81F
FC3F
7C3E
3E7C
3E7C
1FF8
0FF0
0FF0
07E0
07E0
0FF0
1FF0
1FF8
3E7C
3E7C
7C3E
FC3F
F81F
F00F
600E
ENDCHAR
STARTCHAR Y
ENCODING 89
SWIDTH 488 0
DWIDTH 16 0
BBX 17 22 -1 0
BITMAP
700700
F80F80
F80F80
7C1F00
7C1F00
3E3E00
3E3E00
1F7C00
0FFC00
0FF800
07F000
07F000
03E000
03E000
03E000
03E000
03E000
03E000
03E000
03E000
03E000
01C000
ENDCHAR
STARTCHAR Z
ENCODING 90
SWIDTH 508 0
DWIDTH 16 0
BBX 14 22 1 0
BITMAP
7FF8
FFFC
FFFC
7FFC
00F8
00F8
01F0
01F0
03E0
07E0
07C0
0FC0
0F80
1F00
1F00
3E00
3E00
7C00
FFFC
FFFC
FFFC
7FFC
ENDCHAR
STARTCHAR bracketleft
ENCODING 91
SWIDTH 408 0
DWIDTH 13 0
BBX 8 22 4 0
BITMAP
7E
FF
FF
FF
F0
F0
F0
F0
F0
F0
F0
F0
F0
F0
F0
F0
F0
F0
FE
FF
FF
7F
ENDCHAR
STARTCHAR backslash
ENCODING 92
SWIDTH 442 0
DWIDTH 14 0
BBX 12 22 1 0
BITMAP
E000
F000
F000
7800
7800
3C00
3C00
3E00
1E00
1E00
0F00
0F00
0780
0780
07C0
03C0
03C0
01E0
01E0
00F0
00F0
0060
ENDCHAR
STARTCHAR bracketright
ENCODING 93
SWIDTH 408 0
DWIDTH 13 0
BBX 8 22 2 0
BITMAP
FE
FF
FF
FF
0F
0F
0F
0F
0F
0F
0F
0F
0F
0F
0F
0F
0F
0F
FF
FF
FF
FE
ENDCHAR
STARTCHAR asciicircum
ENCODING 94
SWIDTH 476 0
DWIDTH 15 0
BBX 9 6 3 12
BITMAP
1C00
3E00
7F00
FF80
F780
E380
ENDCHAR
STARTCHAR underscore
ENCODING 95
SWIDTH 687 0
DWIDTH 22 0
BBX 18 4 2 0
BITMAP
7FFF80
FFFFC0
FFFFC0
7FFF80
ENDCHAR
STARTCHAR grave
ENCODING 96
SWIDTH 340 0
DWIDTH 11 0
BBX 7 6 2 17
BITMAP
60
F8
FC
7E
3E
0C
ENDCHAR
STARTCHAR a
ENCODING 97
SWIDTH 498 0
DWIDTH 17 0
BBX 14 16 1 0
BITMAP
1E38
7F7C
7FFC
FFFC
F8FC
F87C
F87C
F87C
F87C
F87C
F87C
F8FC
FFFC
7FFC
7F7C
1E38
ENDCHAR
STARTCHAR b
ENCODING 98
SWIDTH 508 0
DWIDTH 16 0
BBX 13 22 2 0
BITMAP
7000
F800
F800
F800
F800
F800
FBC0
FBF0
FFF0
FFF8
FCF8
F8F8
F8F8
F8F8
F8F8
F8F8
F8F8
FCF8
FFF8
FFF0
FBF0
73C0
ENDCHAR
STARTCHAR c
ENCODING 99
SWIDTH 488 0
DWIDTH 16 0
BBX 14 16 1 0
BITMAP
0FC0
3FF0
7FF8
FFFC
F87C
F87C
F878
F800
F800
F838
F87C
F87C
FC7C
7FF8
3FF0
0FC0
ENDCHAR
STARTCHAR d
ENCODING 100
SWIDTH 498 0
DWIDTH 16 0
BBX 13 22 1 0
BITMAP
0070
00F8
00F8
00F8
00F8
00F8
1EF8
7EF8
7FF8
FFF8
F9F8
F8F8
F8F8
F8F8
F8F8
F8F8
F8F8
F9F8
FFF8
7FF8
7EF8
1E70
ENDCHAR
STARTCHAR e
ENCODING 101
SWIDTH 498 0
DWIDTH 16 0
BBX 13 16 1 0
BITMAP
1FC0
3FE0
7FF0
FCF8
F878
F878
F878
FFF8
FFF8
F800
F800
F878
FCF8
7FF8
3FF0
1FC0
ENDCHAR
STARTCHAR f
ENCODING 102
SWIDTH 366 0
DWIDTH 12 0
BBX 11 22 0 0
BITMAP
07C0
0FE0
1FE0
1FE0
1F00
1F00
FFE0
FFE0
FFE0
FFE0
1F00
1F00
1F00
1F00
1F00
1F00
1F00
1F00
1F00
1F00
1F00
0E00
ENDCHAR
STARTCHAR g
ENCODING 103
SWIDTH 508 0
DWIDTH 17 0
BBX 14 22 1 -6
BITMAP
1E38
7F7C
7FFC
FFFC
F8FC
F87C
F87C
F87C
F87C
F87C
F87C
F8FC
FFFC
7FFC
7F7C
1E7C
007C
787C
F8FC
7FF8
7FF0
1FC0
ENDCHAR
STARTCHAR h
ENCODING 104
SWIDTH 508 0
DWIDTH 16 0
BBX 13 22 2 0
BITMAP
7000
F800
F800
F800
F800
F800
FBC0
FFF0
FFF0
FFF8
FCF8
F8F8
F8F8
F8F8
F8F8
F8F8
F8F8
F8F8
F8F8
F8F8
F8F8
7070
ENDCHAR
STARTCHAR i
ENCODING 105
SWIDTH 305 0
DWIDTH 10 0
BBX 5 22 2 0
BITMAP
70
F8
F8
F8
70
00
20
F8
F8
F8
F8
F8
F8
F8
F8
F8
F8
F8
F8
F8
F8
70
ENDCHAR
STARTCHAR j
ENCODING 106
SWIDTH 305 0
DWIDTH 10 0
BBX 8 28 0 -6
BITMAP
0E
1F
1F
1F
0E
00
04
1F
1F
1F
1F
1F
1F
1F
1F
1F
1F
1F
1F
1F
1F
1F
1F
1F
FF
FF
FE
7C
ENDCHAR
STARTCHAR k
ENCODING 107
SWIDTH 495 0
DWIDTH 16 0
BBX 12 22 3 0
BITMAP
6000
F000
F000
F000
F000
F0C0
F1E0
F3E0
F7E0
FFC0
FF80
FF00
FF00
FF80
FF80
FFC0
F7C0
F3E0
F3E0
F1F0
F1F0
60E0
ENDCHAR
STARTCHAR l
ENCODING 108
SWIDTH 286 0
DWIDTH 9 0
BBX 5 22 2 0
BITMAP
70
F8
F8
F8
F8
F8
F8
F8
F8
F8
F8
F8
F8
F8
F8
F8
F8
F8
F8
F8
F8
70
ENDCHAR
STARTCHAR m
ENCODING 109
SWIDTH 783 0
DWIDTH 25 0
BBX 21 16 2 0
BITMAP
71C3C0
FBF7F0
FFFFF0
FFFFF8
FCFCF8
F8F8F8
F8F8F8
F8F8F8
F8F8F8
F8F8F8
F8F8F8
F8F8F8
F8F8F8
F8F8F8
F8F8F8
707070
ENDCHAR
STARTCHAR n
ENCODING 110
SWIDTH 528 0
DWIDTH 17 0
BBX 13 16 2 0
BITMAP
73C0
FBF0
FFF0
FFF8
FCF8
F8F8
F8F8
F8F8
F8F8
F8F8
F8F8
F8F8
F8F8
F8F8
F8F8
7070
ENDCHAR
STARTCHAR o
ENCODING 111
SWIDTH 483 0
DWIDTH 16 0
BBX 14 16 1 0
BITMAP
0FC0
3FF0
7FF8
FFFC
F87C
F87C
F87C
F87C
F87C
F87C
F87C
F87C
F87C
7FF8
3FF0
0FC0
ENDCHAR
STARTCHAR p
ENCODING 112
SWIDTH 518 0
DWIDTH 17 0
BBX 13 22 2 -6
BITMAP
73C0
FBF0
FFF0
FFF8
FCF8
F8F8
F8F8
F8F8
F8F8
F8F8
F8F8
FCF8
FFF8
FFF0
FBF0
FBC0
F800
F800
F800
F800
F800
7000
ENDCHAR
STARTCHAR q
ENCODING 113
SWIDTH 518 0
DWIDTH 17 0
BBX 13 22 2 -6
BITMAP
1E70
7EF8
7FF8
FFF8
F9F8
F8F8
F8F8
F8F8
F8F8
F8F8
F8F8
F9F8
FFF8
7FF8
7EF8
1EF8
00F8
00F8
00F8
00F8
00F8
0070
ENDCHAR
STARTCHAR r
ENCODING 114
SWIDTH 386 0
DWIDTH 12 0
BBX 10 16 2 0
BITMAP
71C0
FBC0
FFC0
FFC0
FFC0
FC00
F800
F800
F800
F800
F800
F800
F800
F800
F800
7000
ENDCHAR
STARTCHAR s
ENCODING 115
SWIDTH 444 0
DWIDTH 14 0
BBX 12 16 1 0
BITMAP
1FC0
7FE0
FFF0
F8F0
F8F0
FCE0
7F00
3FC0
1FE0
07F0
E3F0
F1F0
F1F0
FFE0
7FE0
1F80
ENDCHAR
STARTCHAR t
ENCODING 116
SWIDTH 424 0
DWIDTH 14 0
BBX 12 22 1 0
BITMAP
0E00
1F00
1F00
1F00
1F00
1F00
FFE0
FFE0
FFF0
FFE0
1F00
1F00
1F00
1F00
1F00
1F00
1F00
1F00
1FE0
1FF0
0FE0
07C0
ENDCHAR
STARTCHAR u
ENCODING 117
SWIDTH 525 0
DWIDTH 17 0
BBX 13 16 2 0
BITMAP
7070
F8F8
F8F8
F8F8
F8F8
F8F8
F8F8
F8F8
F8F8
F8F8
F8F8
F9F8
FFF8
7FF8
7EF8
1E70
ENDCHAR
STARTCHAR v
ENCODING 118
SWIDTH 427 0
DWIDTH 14 0
BBX 12 16 1 0
BITMAP
E060
F0F0
F0F0
F1F0
F9F0
F9E0
7BE0
7FE0
3FC0
3FC0
3F80
1F80
1F80
1F00
0F00
0600
ENDCHAR
STARTCHAR w
ENCODING 119
SWIDTH 681 0
DWIDTH 22 0
BBX 21 16 0 0
BITMAP
700038
F80078
F87078
787878
7CFCF8
7CFCF8
3CFCF0
3FFFF0
3FFFE0
1FCFE0
1FCFE0
0FCFC0
0F8FC0
0F87C0
078780
070380
ENDCHAR
STARTCHAR x
ENCODING 120
SWIDTH 458 0
DWIDTH 15 0
BBX 12 16 1 0
BITMAP
6070
F0F0
F8F0
7DF0
7FE0
3FE0
1FC0
1F80
1F80
1FC0
3FE0
7FE0
7DF0
F8F0
F0F0
6070
ENDCHAR
STARTCHAR y
ENCODING 121
SWIDTH 447 0
DWIDTH 14 0
BBX 14 22 0 -6
BITMAP
7038
783C
F87C
7C7C
7C78
7CF8
3EF8
3EF0
1FF0
1FF0
1FE0
0FE0
0FC0
07C0
07C0
0F80
0F80
1F00
7F00
FE00
FC00
7800
ENDCHAR
STARTCHAR z
ENCODING 122
SWIDTH 447 0
DWIDTH 14 0
BBX 12 16 1 0
BITMAP
7FE0
FFF0
FFF0
7FF0
03E0
07C0
07C0
0F80
1F00
1F00
3E00
7C00
7FF0
FFF0
FFF0
7FF0
ENDCHAR
STARTCHAR braceleft
ENCODING 123
SWIDTH 494 0
DWIDTH 16 0
BBX 12 28 3 -3
BITMAP
03E0
07E0
0FF0
1FE0
1F00
1E00
1E00
1E00
1E00
1E00
1E00
3E00
7C00
F800
FC00
3C00
1E00
1E00
1E00
1E00
1E00
1E00
1E00
1F00
0FE0
0FE0
07F0
03E0
ENDCHAR
STARTCHAR bar
ENCODING 124
SWIDTH 294 0
DWIDTH 9 0
BBX 4 27 3 -3
BITMAP
E0
F0
F0
F0
F0
F0
F0
F0
F0
F0
F0
F0
F0
F0
F0
F0
F0
F0
F0
F0
F0
F0
F0
F0
F0
F0
F0
ENDCHAR
STARTCHAR braceright
ENCODING 125
SWIDTH 494 0
DWIDTH 16 0
BBX 12 28 1 -3
BITMAP
7800
FE00
FF00
7F80
0F80
0780
0780
0780
0780
0780
0780
07C0
03E0
03F0
03F0
03C0
0780
0780
0780
0780
0780
0780
0780
0F80
7F00
FF00
7E00
7C00
ENDCHAR
STARTCHAR asciitilde
ENCODING 126
SWIDTH 448 0
DWIDTH 14 0
BBX 11 5 2 1
BITMAP
38C0
7FC0
FFE0
FF80
C300
ENDCHAR
STARTCHAR space.dup1
ENCODING 160
SWIDTH 389 0
DWIDTH 12 0
BBX 1 1 0 0
BITMAP
00
ENDCHAR
STARTCHAR exclamdown
ENCODING 161
SWIDTH 394 0
DWIDTH 13 0
BBX 5 22 4 0
BITMAP
70
F8
F8
F8
70
00
00
70
70
70
70
78
F8
F8
F8
F8
F8
F8
F8
F8
F8
70
ENDCHAR
STARTCHAR cent
ENCODING 162
SWIDTH 488 0
DWIDTH 16 0
BBX 14 22 1 0
BITMAP
0700
0780
0780
0780
3FF0
7FF8
7FFC
F87C
F87C
F87C
F800
F800
F800
F87C
F87C
FC7C
7FF8
3FF8
1FE0
0780
0780
0700
ENDCHAR
STARTCHAR sterling
ENCODING 163
SWIDTH 603 0
DWIDTH 19 0
BBX 16 22 1 0
BITMAP
03F0
0FFC
1FFC
3FFE
3F3F
3E1F
3E1F
3E1F
3E1F
3E00
FFE0
FFE0
FFE0
FFE0
3E00
3E00
3E00
3E00
3FFC
3FFE
3FFE
1FFC
ENDCHAR
STARTCHAR currency
ENCODING 164
SWIDTH 582 0
DWIDTH 19 0
BBX 13 13 2 3
BITMAP
6030
FFF8
FFF8
7FF0
78F0
7070
7070
7070
78F0
7FF0
FFF8
FFF8
6030
ENDCHAR
STARTCHAR yen
ENCODING 165
SWIDTH 488 0
DWIDTH 16 0
BBX 14 22 1 0
BITMAP
6018
F03C
F07C
7878
78F8
3CF0
3DF0
1FE0
1FC0
0FC0
0780
0780
0780
3FF0
3FF0
3FF0
3FF0
0780
0780
0780
0780
0300
ENDCHAR
STARTCHAR brokenbar
ENCODING 166
SWIDTH 325 0
DWIDTH 10 0
BBX 4 27 3 -3
BITMAP
E0
F0
F0
F0
F0
F0
F0
F0
F0
F0
F0
60
00
00
00
60
F0
F0
F0
F0
F0
F0
F0
F0
F0
F0
F0
ENDCHAR
STARTCHAR section
ENCODING 167
SWIDTH 567 0
DWIDTH 18 0
BBX 13 27 3 -4
BITMAP
1FC0
7FF0
7FF0
F8F8
F8F8
F8F8
FC70
7FC0
3FE0
7FF0
FCF8
F8F8
F878
F878
F8F8
FCF8
7FF0
3FE0
1FF0
01F0
70F8
F0F8
F0F8
F8F8
7FF0
7FF0
1FC0
ENDCHAR
STARTCHAR dieresis
ENCODING 168
SWIDTH 456 0
DWIDTH 15 0
BBX 11 5 2 17
BITMAP
71C0
FBE0
FBE0
FBE0
71C0
ENDCHAR
STARTCHAR copyright
ENCODING 169
SWIDTH 717 0
DWIDTH 22 0
BBX 18 18 2 3
BITMAP
07F800
1C0E00
300300
600180
40E080
C3F040
83B840
83B840
83B840
838040
83B840
83B840
C3F0C0
41E080
600180
300300
1C0E00
07F800
ENDCHAR
STARTCHAR ordfeminine
ENCODING 170
SWIDTH 389 0
DWIDTH 12 0
BBX 8 9 2 13
BITMAP
76
FF
EF
E7
E7
E7
EF
FF
77
ENDCHAR
STARTCHAR guillemotleft
ENCODING 171
SWIDTH 745 0
DWIDTH 24 0
BBX 18 15 2 2
BITMAP
038180
0783C0
0F87C0
1F8FC0
3F1F80
7E3F00
FC7E00
F87C00
FC7C00
7E3E00
3F1F00
1F8F80
0F87C0
0783C0
038180
ENDCHAR
STARTCHAR logicalnot
ENCODING 172
SWIDTH 728 0
DWIDTH 24 0
BBX 17 10 3 7
BITMAP
FFFF00
FFFF80
FFFF80
FFFF80
000780
000780
000780
000780
000780
000780
ENDCHAR
STARTCHAR registered
ENCODING 174
SWIDTH 695 0
DWIDTH 22 0
BBX 18 18 2 3
BITMAP
07F800
1C0E00
300300
600180
43E080
C3F040
833040
833040
837040
83E040
833040
833040
C330C0
433080
600180
300300
1C0E00
07F800
ENDCHAR
STARTCHAR macron
ENCODING 175
SWIDTH 486 0
DWIDTH 16 0
BBX 12 4 2 18
BITMAP
7FE0
FFE0
FFF0
7FE0
ENDCHAR
STARTCHAR degree
ENCODING 176
SWIDTH 406 0
DWIDTH 13 0
BBX 9 9 2 13
BITMAP
3E00
7F00
FF80
E380
E380
E380
FF80
7F00
3E00
ENDCHAR
STARTCHAR plusminus
ENCODING 177
SWIDTH 516 0
DWIDTH 17 0
BBX 12 17 2 3
BITMAP
0700
0F00
0F00
0F00
FFE0
FFF0
FFF0
FFE0
0F00
0F00
0F00
0F00
0000
FFE0
FFF0
FFF0
FFE0
ENDCHAR
STARTCHAR twosuperior
ENCODING 178
SWIDTH 312 0
DWIDTH 10 0
BBX 6 9 2 13
BITMAP
78
FC
CC
0C
38
E0
C0
FC
FC
ENDCHAR
STARTCHAR threesuperior
ENCODING 179
SWIDTH 325 0
DWIDTH 10 0
BBX 6 9 2 13
BITMAP
78
7C
18
10
3C
0C
CC
FC
78
ENDCHAR
STARTCHAR acute
ENCODING 180
SWIDTH 350 0
DWIDTH 11 0
BBX 7 6 2 17
BITMAP
0C
3E
7E
FC
F8
60
ENDCHAR
STARTCHAR uni00B5
ENCODING 181
SWIDTH 642 0
DWIDTH 21 0
BBX 15 20 3 -4
BITMAP
701C
F83E
F83E
F83E
F83E
F83E
F83E
F83E
F83E
FC7E
FC7E
FFFE
FFFE
FFFE
F7BE
F01C
F000
F000
F000
6000
ENDCHAR
STARTCHAR paragraph
ENCODING 182
SWIDTH 687 0
DWIDTH 22 0
BBX 17 27 2 -5
BITMAP
1FFF00
3FFF80
7FFF80
FFFF80
FFCF80
FFCF80
FFCF80
FFCF80
7FCF80
7FCF80
3FCF80
0FCF80
07CF80
07CF80
07CF80
07CF80
07CF80
07CF80
07CF80
07CF80
07CF80
07CF80
07CF80
07CF80
07CF80
07CF80
038700
ENDCHAR
STARTCHAR periodcentered
ENCODING 183
SWIDTH 400 0
DWIDTH 13 0
BBX 5 5 4 8
BITMAP
70
F8
F8
F8
70
ENDCHAR
STARTCHAR cedilla
ENCODING 184
SWIDTH 324 0
DWIDTH 10 0
BBX 8 7 1 -6
BITMAP
0C
18
1F
E7
E7
FF
7E
ENDCHAR
STARTCHAR onesuperior
ENCODING 185
SWIDTH 308 0
DWIDTH 10 0
BBX 4 9 3 13
BITMAP
30
70
F0
F0
30
30
30
30
30
ENDCHAR
STARTCHAR ordmasculine
ENCODING 186
SWIDTH 385 0
DWIDTH 13 0
BBX 8 9 2 13
BITMAP
3C
FF
E7
E7
E7
E7
E7
FF
3C
ENDCHAR
STARTCHAR guillemotright
ENCODING 187
SWIDTH 750 0
DWIDTH 24 0
BBX 18 15 3 2
BITMAP
603000
F07800
F87C00
7C7E00
3E3F00
1F1F80
0F8FC0
0787C0
0F8FC0
1F1F80
3E3F00
7C7E00
F87C00
F07800
603000
ENDCHAR
STARTCHAR onequarter
ENCODING 188
SWIDTH 458 0
DWIDTH 15 0
BBX 10 22 2 0
BITMAP
0C00
1C00
3C00
3C00
0C00
0C00
0C00
0C00
0C00
0000
FFC0
FFC0
0000
1800
1800
1000
1600
3600
3E00
3E00
0600
0600
ENDCHAR
STARTCHAR onehalf
ENCODING 189
SWIDTH 458 0
DWIDTH 15 0
BBX 10 22 3 0
BITMAP
0C00
1C00
3C00
3C00
0C00
0C00
0C00
0C00
0C00
0000
FFC0
FFC0
0000
1E00
3300
3300
3700
1E00
3800
3000
3F00
3F00
ENDCHAR
STARTCHAR threequarters
ENCODING 190
SWIDTH 458 0
DWIDTH 15 0
BBX 9 22 3 0
BITMAP
3C00
3E00
0C00
0800
1E00
0600
6600
7E00
3C00
0000
FF80
FF80
0000
1800
3800
3000
3600
7600
7E00
7E00
0600
0600
ENDCHAR
STARTCHAR questiondown
ENCODING 191
SWIDTH 557 0
DWIDTH 18 0
BBX 15 22 1 0
BITMAP
0380
07C0
07C0
07C0
0380
0000
0000
0780
0780
0780
07E0
03F0
01FC
207C
F83E
F83E
F83E
FC7E
7FFC
7FFC
3FF8
0FE0
ENDCHAR
STARTCHAR Agrave
ENCODING 192
SWIDTH 539 0
DWIDTH 17 0
BBX 15 29 1 0
BITMAP
0E00
0F80
0FE0
07E0
01E0
0000
0000
07C0
0FE0
1FF0
1FF0
1FF0
1EF0
3EF8
3EF8
3C78
7C7C
7C7C
783C
F83E
FFFE
FFFE
FFFE
FFFE
F01E
F01E
F01E
F01E
600C
ENDCHAR
STARTCHAR Aacute
ENCODING 193
SWIDTH 539 0
DWIDTH 17 0
BBX 15 29 1 0
BITMAP
00E0
03E0
0FE0
0FC0
0F00
0000
0000
07C0
0FE0
1FF0
1FF0
1FF0
1EF0
3EF8
3EF8
3C78
7C7C
7C7C
783C
F83E
FFFE
FFFE
FFFE
FFFE
F01E
F01E
F01E
F01E
600C
ENDCHAR
STARTCHAR Acircumflex
ENCODING 194
SWIDTH 539 0
DWIDTH 17 0
BBX 15 30 1 0
BITMAP
0380
07C0
0FE0
1FF0
3EF8
1C70
0000
0000
07C0
0FE0
1FF0
1FF0
1FF0
1EF0
3EF8
3EF8
3C78
7C7C
7C7C
783C
F83E
FFFE
FFFE
FFFE
FFFE
F01E
F01E
F01E
F01E
600C
ENDCHAR
STARTCHAR Atilde
ENCODING 195
SWIDTH 539 0
DWIDTH 17 0
BBX 15 28 1 0
BITMAP
0E10
1FF8
3FF8
3FF0
10E0
0000
07C0
0FE0
1FF0
1FF0
1FF0
1EF0
3EF8
3EF8
3C78
7C7C
7C7C
783C
F83E
FFFE
FFFE
FFFE
FFFE
F01E
F01E
F01E
F01E
600C
ENDCHAR
STARTCHAR Adieresis
ENCODING 196
SWIDTH 539 0
DWIDTH 16 0
BBX 14 28 1 0
BITMAP
1C70
3EF8
3EF8
3EF8
1C70
0000
0FC0
0FC0
1FE0
1FE0
1FE0
3EF0
3EF0
3EF0
3C70
7C78
7C78
7C78
F83C
FFFC
FFFC
FFFC
FFFC
F03C
F03C
F03C
F03C
6018
ENDCHAR
STARTCHAR Aring
ENCODING 197
SWIDTH 539 0
DWIDTH 16 0
BBX 14 31 1 0
BITMAP
07C0
0FE0
0C60
0C60
0C60
0C60
07C0
07C0
0000
0FC0
0FC0
1FE0
1FE0
1FE0
3EF0
3EF0
3EF0
3C70
7C78
7C78
7C78
F83C
FFFC
FFFC
FFFC
FFFC
F03C
F03C
F03C
F03C
6018
ENDCHAR
STARTCHAR AE
ENCODING 198
SWIDTH 781 0
DWIDTH 25 0
BBX 23 22 1 0
BITMAP
007FFC
01FFFE
01FFFE
03FFFE
07FFFC
07DF00
0FDF00
0F9F00
1F9F00
1F1FF8
3E1FF8
7E1FF8
7C1FF8
FFFF00
FFFF00
FFFF00
FFFF00
F01FFC
F01FFE
F01FFE
F01FFE
600FFC
ENDCHAR
STARTCHAR Ccedilla
ENCODING 199
SWIDTH 541 0
DWIDTH 18 0
BBX 15 28 2 -6
BITMAP
07E0
1FF8
7FFC
7FFC
FC7E
F83E
F83E
F83E
F83E
F800
F800
F800
F800
F83E
F83E
F83E
F83E
FC7C
7FFC
7FF8
3FF0
0FC0
03E0
00E0
1CE0
1CE0
1FE0
0F80
ENDCHAR
STARTCHAR Egrave
ENCODING 200
SWIDTH 481 0
DWIDTH 15 0
BBX 12 29 2 0
BITMAP
1800
3E00
3F80
0F80
0780
0000
0000
7FE0
FFF0
FFF0
FFF0
FFE0
F800
F800
F800
F800
FFC0
FFC0
FFC0
FFC0
F800
F800
F800
F800
FFE0
FFF0
FFF0
FFF0
7FE0
ENDCHAR
STARTCHAR Eacute
ENCODING 201
SWIDTH 481 0
DWIDTH 15 0
BBX 12 29 2 0
BITMAP
0380
0F80
1F80
3F00
3C00
0000
0000
7FE0
FFF0
FFF0
FFF0
FFE0
F800
F800
F800
F800
FFC0
FFC0
FFC0
FFC0
F800
F800
F800
F800
FFE0
FFF0
FFF0
FFF0
7FE0
ENDCHAR
STARTCHAR Ecircumflex
ENCODING 202
SWIDTH 481 0
DWIDTH 15 0
BBX 12 30 2 0
BITMAP
0600
0F00
1FC0
3FE0
79E0
30C0
0000
0000
7FE0
FFF0
FFF0
FFF0
FFE0
F800
F800
F800
F800
FFC0
FFC0
FFC0
FFC0
F800
F800
F800
F800
FFE0
FFF0
FFF0
FFF0
7FE0
ENDCHAR
STARTCHAR Edieresis
ENCODING 203
SWIDTH 481 0
DWIDTH 16 0
BBX 12 28 2 0
BITMAP
70E0
F9F0
F9F0
F9F0
70E0
0000
7FE0
FFF0
FFF0
FFF0
FFE0
F800
F800
F800
F800
FF80
FFC0
FFC0
FF80
F800
F800
F800
F800
FFE0
FFF0
FFF0
FFF0
7FE0
ENDCHAR
STARTCHAR Igrave
ENCODING 204
SWIDTH 325 0
DWIDTH 11 0
BBX 7 29 1 0
BITMAP
70
78
FE
3E
0E
00
00
1C
3E
3E
3E
3E
3E
3E
3E
3E
3E
3E
3E
3E
3E
3E
3E
3E
3E
3E
3E
3E
1C
ENDCHAR
STARTCHAR Iacute
ENCODING 205
SWIDTH 325 0
DWIDTH 11 0
BBX 7 29 2 0
BITMAP
0C
3E
FE
F8
F0
00
00
38
7C
7C
7C
7C
7C
7C
7C
7C
7C
7C
7C
7C
7C
7C
7C
7C
7C
7C
7C
7C
38
ENDCHAR
STARTCHAR Icircumflex
ENCODING 206
SWIDTH 325 0
DWIDTH 11 0
BBX 10 30 0 0
BITMAP
0E00
1F00
3F80
7FC0
FBC0
7180
0000
0000
0E00
1F00
1F00
1F00
1F00
1F00
1F00
1F00
1F00
1F00
1F00
1F00
1F00
1F00
1F00
1F00
1F00
1F00
1F00
1F00
1F00
0E00
ENDCHAR
STARTCHAR Idieresis
ENCODING 207
SWIDTH 325 0
DWIDTH 10 0
BBX 12 28 -1 0
BITMAP
70E0
F9F0
F9F0
F9F0
70E0
0000
0E00
1F00
1F00
1F00
1F00
1F00
1F00
1F00
1F00
1F00
1F00
1F00
1F00
1F00
1F00
1F00
1F00
1F00
1F00
1F00
1F00
0E00
ENDCHAR
STARTCHAR Eth
ENCODING 208
SWIDTH 549 0
DWIDTH 17 0
BBX 16 22 0 0
BITMAP
1FF0
1FFC
1FFE
1FFF
1F1F
1F0F
1F0F
1F0F
1E0F
FFCF
FFEF
FFEF
FFEF
1F0F
1F0F
1F0F
1F0F
1F1F
1FFE
1FFE
1FFC
0FF0
ENDCHAR
STARTCHAR Ntilde
ENCODING 209
SWIDTH 664 0
DWIDTH 21 0
BBX 17 28 2 0
BITMAP
070800
0FFC00
1FFC00
1FF800
087000
000000
7C0700
FE0780
FE0780
FF0780
FF0780
FF0780
FF8780
F78780
F7C780
F3C780
F3C780
F1E780
F1E780
F1F780
F0F780
F0FF80
F07F80
F07F80
F07F80
F03F80
F03F80
701F00
ENDCHAR
STARTCHAR Ograve
ENCODING 210
SWIDTH 548 0
DWIDTH 18 0
BBX 14 29 2 0
BITMAP
0C00
1F00
0FC0
07C0
03C0
0000
0000
0FC0
3FF0
7FF8
7FF8
FCFC
F87C
F87C
F87C
F87C
F87C
F87C
F87C
F87C
F87C
F87C
F87C
F87C
FCFC
7FF8
7FF8
3FF0
0FC0
ENDCHAR
STARTCHAR Oacute
ENCODING 211
SWIDTH 548 0
DWIDTH 18 0
BBX 14 29 2 0
BITMAP
01C0
03C0
0FC0
1F80
0E00
0000
0000
0FC0
3FF0
7FF8
7FF8
FCFC
F87C
F87C
F87C
F87C
F87C
F87C
F87C
F87C
F87C
F87C
F87C
F87C
FCFC
7FF8
7FF8
3FF0
0FC0
ENDCHAR
STARTCHAR Ocircumflex
ENCODING 212
SWIDTH 548 0
DWIDTH 18 0
BBX 14 30 2 0
BITMAP
0300
0F80
1FC0
3FE0
3DF0
38E0
0000
0000
0FC0
3FF0
7FF8
7FF8
FCFC
F87C
F87C
F87C
F87C
F87C
F87C
F87C
F87C
F87C
F87C
F87C
F87C
FCFC
7FF8
7FF8
3FF0
0FC0
ENDCHAR
STARTCHAR Otilde
ENCODING 213
SWIDTH 548 0
DWIDTH 18 0
BBX 14 28 2 0
BITMAP
0C20
1FF0
3FF0
7FE0
31C0
0000
0FC0
3FF0
7FF8
7FF8
FCFC
F87C
F87C
F87C
F87C
F87C
F87C
F87C
F87C
F87C
F87C
F87C
F87C
FCFC
7FF8
7FF8
3FF0
0FC0
ENDCHAR
STARTCHAR Odieresis
ENCODING 214
SWIDTH 548 0
DWIDTH 18 0
BBX 14 28 2 0
BITMAP
3870
7CF8
7CF8
7CF8
3870
0000
0FC0
3FF0
7FF8
7FF8
FCFC
F87C
F87C
F87C
F87C
F87C
F87C
F87C
F87C
F87C
F87C
F87C
F87C
FCFC
7FF8
7FF8
3FF0
0FC0
ENDCHAR
STARTCHAR multiply
ENCODING 215
SWIDTH 623 0
DWIDTH 20 0
BBX 14 13 3 5
BITMAP
6018
F03C
F87C
7CF8
3FF0
1FE0
0FC0
1FE0
3FF0
7DF8
F8FC
F07C
6018
ENDCHAR
STARTCHAR Oslash
ENCODING 216
SWIDTH 550 0
DWIDTH 18 0
BBX 14 22 2 0
BITMAP
0FC0
3FF0
7FF8
7FF8
FCFC
F87C
F8FC
F8FC
F9FC
F9FC
FBFC
FB7C
FE7C
FE7C
FC7C
FC7C
F87C
FCFC
7FF8
7FF8
3FF0
0FC0
ENDCHAR
STARTCHAR Ugrave
ENCODING 217
SWIDTH 589 0
DWIDTH 19 0
BBX 15 29 2 0
BITMAP
0700
07C0
07E0
03F0
00F0
0000
0000
701C
F83E
F83E
F83E
F83E
F83E
F83E
F83E
F83E
F83E
F83E
F83E
F83E
F83E
F83E
F83E
F83E
FC7E
7FFC
7FFC
3FF8
0FE0
ENDCHAR
STARTCHAR Uacute
ENCODING 218
SWIDTH 589 0
DWIDTH 19 0
BBX 15 29 2 0
BITMAP
00E0
03E0
07E0
07C0
0700
0000
0000
701C
F83E
F83E
F83E
F83E
F83E
F83E
F83E
F83E
F83E
F83E
F83E
F83E
F83E
F83E
F83E
F83E
FC7E
7FFC
7FFC
3FF8
0FE0
ENDCHAR
STARTCHAR Ucircumflex
ENCODING 219
SWIDTH 589 0
DWIDTH 19 0
BBX 15 30 2 0
BITMAP
0380
07C0
0FE0
1FF0
1EF0
1C70
0000
0000
701C
F83E
F83E
F83E
F83E
F83E
F83E
F83E
F83E
F83E
F83E
F83E
F83E
F83E
F83E
F83E
F83E
FC7E
7FFC
7FFC
3FF8
0FE0
ENDCHAR
STARTCHAR Udieresis
ENCODING 220
SWIDTH 589 0
DWIDTH 19 0
BBX 14 28 2 0
BITMAP
1C70
3EF8
3EF8
3EF8
1C70
0000
7038
F87C
F87C
F87C
F87C
F87C
F87C
F87C
F87C
F87C
F87C
F87C
F87C
F87C
F87C
F87C
F87C
FCFC
7FF8
7FF8
3FF0
0FC0
ENDCHAR
STARTCHAR Yacute
ENCODING 221
SWIDTH 488 0
DWIDTH 16 0
BBX 17 29 -1 0
BITMAP
007000
00F000
03F000
07E000
038000
000000
000000
700700
F80F80
F80F80
7C1F00
7C1F00
3E3E00
3E3E00
1F7C00
0FFC00
0FF800
07F000
07F000
03E000
03E000
03E000
03E000
03E000
03E000
03E000
03E000
03E000
01C000
ENDCHAR
STARTCHAR Thorn
ENCODING 222
SWIDTH 551 0
DWIDTH 18 0
BBX 13 22 3 0
BITMAP
7000
F800
F800
FBC0
FBF0
FFF0
FFF8
FCF8
F8F8
F8F8
F8F8
F8F8
F8F8
F8F8
FCF8
FFF8
FFF0
FBF0
FBC0
F800
F800
7000
ENDCHAR
STARTCHAR germandbls
ENCODING 223
SWIDTH 551 0
DWIDTH 18 0
BBX 15 24 2 -3
BITMAP
1FC0
7FE0
FFF0
F8F8
F878
F878
F878
F9F8
FBF0
FBE0
F9F8
F8FC
F87E
F83E
F83E
F83E
F83E
FBFE
FBFC
FBF8
F9E0
F800
F800
7000
ENDCHAR
STARTCHAR agrave
ENCODING 224
SWIDTH 498 0
DWIDTH 17 0
BBX 14 23 1 0
BITMAP
0E00
1F00
1FC0
07E0
03E0
0000
0000
1E38
7F7C
7FFC
FFFC
F8FC
F87C
F87C
F87C
F87C
F87C
F87C
F8FC
FFFC
7FFC
7F7C
1E38
ENDCHAR
STARTCHAR aacute
ENCODING 225
SWIDTH 498 0
DWIDTH 17 0
BBX 14 23 1 0
BITMAP
00C0
03E0
0FC0
0F80
0F00
0000
0000
1E38
7F7C
7FFC
FFFC
F8FC
F87C
F87C
F87C
F87C
F87C
F87C
F8FC
FFFC
7FFC
7F7C
1E38
ENDCHAR
STARTCHAR acircumflex
ENCODING 226
SWIDTH 498 0
DWIDTH 16 0
BBX 13 23 1 0
BITMAP
0380
07C0
0FE0
1FF0
3EF0
1C60
0000
0000
3C70
7EF8
7FF8
FFF8
F9F8
F8F8
F8F8
F8F8
F8F8
F8F8
F9F8
FFF8
7FF8
7EF8
1C70
ENDCHAR
STARTCHAR atilde
ENCODING 227
SWIDTH 498 0
DWIDTH 17 0
BBX 14 22 1 0
BITMAP
0C20
1FF0
3FF0
7BE0
30C0
0000
1E38
7F7C
7FFC
FFFC
F8FC
F87C
F87C
F87C
F87C
F87C
F87C
F8FC
FFFC
7FFC
7F7C
1E38
ENDCHAR
STARTCHAR adieresis
ENCODING 228
SWIDTH 498 0
DWIDTH 16 0
BBX 14 22 1 0
BITMAP
3870
7CF8
7CF8
7CF8
3870
0000
1E38
7F7C
7FFC
FFFC
F8FC
F87C
F87C
F87C
F87C
F87C
F87C
F8FC
FFFC
7FFC
7F7C
1E38
ENDCHAR
STARTCHAR aring
ENCODING 229
SWIDTH 498 0
DWIDTH 16 0
BBX 14 24 1 0
BITMAP
07C0
1FE0
1860
1860
1860
1FE0
0780
0000
1E38
7F7C
7FFC
FFFC
F8FC
F87C
F87C
F87C
F87C
F87C
F87C
F8FC
FFFC
7FFC
7F7C
1E38
ENDCHAR
STARTCHAR ae
ENCODING 230
SWIDTH 707 0
DWIDTH 23 0
BBX 22 16 0 0
BITMAP
1FC3E0
7FFFF8
FFFFF8
FC7C7C
F87C7C
F87C7C
03FFFC
1FFFF8
3FFFC0
7FFC00
FC7C3C
F87C7C
F8FE7C
FFFFFC
7FFFF8
1FC3E0
ENDCHAR
STARTCHAR ccedilla
ENCODING 231
SWIDTH 488 0
DWIDTH 16 0
BBX 14 22 1 -6
BITMAP
0FC0
3FF0
7FF8
FFFC
F87C
F87C
F878
F800
F800
F838
F87C
F87C
FC7C
7FF8
3FF0
0FE0
0300
03E0
1CE0
1CE0
1FE0
0FC0
ENDCHAR
STARTCHAR egrave
ENCODING 232
SWIDTH 498 0
DWIDTH 16 0
BBX 13 23 1 0
BITMAP
0C00
1F00
1F80
0FC0
03C0
0000
0000
1FC0
3FE0
7FF0
FCF8
F878
F878
F878
FFF8
FFF8
F800
F800
F878
FCF8
7FF8
3FF0
1FC0
ENDCHAR
STARTCHAR eacute
ENCODING 233
SWIDTH 498 0
DWIDTH 16 0
BBX 13 23 1 0
BITMAP
00C0
03E0
0FC0
0F80
0F00
0000
0000
1FC0
3FE0
7FF0
FCF8
F878
F878
F878
FFF8
FFF8
F800
F800
F878
FCF8
7FF8
3FF0
1FC0
ENDCHAR
STARTCHAR ecircumflex
ENCODING 234
SWIDTH 498 0
DWIDTH 16 0
BBX 13 23 1 0
BITMAP
0700
0F80
1FE0
3DE0
38E0
0000
0000
1FC0
3FE0
7FF0
F8F8
F878
F878
FE78
FFF8
FFF8
F800
F800
F878
FCF8
7FF8
3FF0
1FC0
ENDCHAR
STARTCHAR edieresis
ENCODING 235
SWIDTH 498 0
DWIDTH 16 0
BBX 13 22 1 0
BITMAP
3870
7CF8
7CF8
7CF8
3870
0000
1FC0
3FE0
7FF0
FCF8
F878
F878
F878
FFF8
FFF8
F800
F800
F878
FCF8
7FF8
3FF0
1FC0
ENDCHAR
STARTCHAR igrave
ENCODING 236
SWIDTH 305 0
DWIDTH 10 0
BBX 7 23 1 0
BITMAP
60
F8
FE
7E
1E
00
00
10
7C
7C
7C
7C
7C
7C
7C
7C
7C
7C
7C
7C
7C
7C
38
ENDCHAR
STARTCHAR iacute
ENCODING 237
SWIDTH 305 0
DWIDTH 10 0
BBX 7 23 1 0
BITMAP
0E
1E
7E
7C
F0
00
00
10
7C
7C
7C
7C
7C
7C
7C
7C
7C
7C
7C
7C
7C
7C
38
ENDCHAR
STARTCHAR icircumflex
ENCODING 238
SWIDTH 315 0
DWIDTH 10 0
BBX 10 23 0 0
BITMAP
0C00
1E00
3F80
7FC0
F3C0
6180
0000
0000
0E00
1F00
1F00
1F00
1F00
1F00
1F00
1F00
1F00
1F00
1F00
1F00
1F00
1F00
0E00
ENDCHAR
STARTCHAR idieresis
ENCODING 239
SWIDTH 305 0
DWIDTH 10 0
BBX 12 22 -1 0
BITMAP
70E0
F9F0
F9F0
F9F0
70E0
0000
0400
1F00
1F00
1F00
1F00
1F00
1F00
1F00
1F00
1F00
1F00
1F00
1F00
1F00
1F00
0E00
ENDCHAR
STARTCHAR eth
ENCODING 240
SWIDTH 519 0
DWIDTH 17 0
BBX 15 22 2 0
BITMAP
0780
07E0
01F0
03FE
07FE
07F8
0078
0078
1F78
3FF8
7FF8
F9F8
F8F8
F8F8
F8F8
F8F8
F8F8
F8F8
F8F8
7FF0
3FE0
1FC0
ENDCHAR
STARTCHAR ntilde
ENCODING 241
SWIDTH 528 0
DWIDTH 17 0
BBX 13 22 2 0
BITMAP
1C40
3FE0
7FE0
7FC0
2180
0000
73C0
FBF0
FFF0
FFF8
FCF8
F8F8
F8F8
F8F8
F8F8
F8F8
F8F8
F8F8
F8F8
F8F8
F8F8
7070
ENDCHAR
STARTCHAR ograve
ENCODING 242
SWIDTH 488 0
DWIDTH 16 0
BBX 14 23 1 0
BITMAP
0E00
1F00
1FC0
07E0
03E0
0000
0000
0000
0FC0
3FF0
7FF8
F87C
F87C
F87C
F87C
F87C
F87C
F87C
F87C
F87C
7FF8
3FF0
0FE0
ENDCHAR
STARTCHAR oacute
ENCODING 243
SWIDTH 488 0
DWIDTH 16 0
BBX 14 23 1 0
BITMAP
01C0
07C0
0FC0
1F80
1E00
0000
0000
0000
0FC0
3FF0
7FF8
F87C
F87C
F87C
F87C
F87C
F87C
F87C
F87C
F87C
7FF8
3FF0
0FE0
ENDCHAR
STARTCHAR ocircumflex
ENCODING 244
SWIDTH 488 0
DWIDTH 16 0
BBX 14 23 1 0
BITMAP
0780
0FC0
1FE0
3FF0
3CF0
1860
0000
0000
0FC0
3FF0
7FF8
F87C
F87C
F87C
F87C
F87C
F87C
F87C
F87C
F87C
7FF8
3FF0
0FE0
ENDCHAR
STARTCHAR otilde
ENCODING 245
SWIDTH 488 0
DWIDTH 16 0
BBX 14 22 1 0
BITMAP
0E20
1FF0
3FF0
7FE0
30C0
0000
0000
0FC0
3FF0
7FF8
F87C
F87C
F87C
F87C
F87C
F87C
F87C
F87C
F87C
7FF8
3FF0
0FE0
ENDCHAR
STARTCHAR odieresis
ENCODING 246
SWIDTH 488 0
DWIDTH 16 0
BBX 14 22 1 0
BITMAP
3870
7CF8
7CF8
7CF8
3870
0000
0000
0FC0
3FF0
7FF8
FCFC
F87C
F87C
F87C
F87C
F87C
F87C
F87C
FCFC
7FF8
3FF0
0FE0
ENDCHAR
STARTCHAR divide
ENCODING 247
SWIDTH 681 0
DWIDTH 22 0
BBX 18 17 2 3
BITMAP
01C000
03E000
03E000
03E000
01C000
000000
000000
7FFF80
FFFFC0
FFFFC0
7FFF80
000000
01C000
03E000
03E000
03E000
01C000
ENDCHAR
STARTCHAR oslash
ENCODING 248
SWIDTH 488 0
DWIDTH 16 0
BBX 14 16 1 0
BITMAP
0FC0
3FF0
7FF8
FFFC
F8FC
F9FC
F9FC
FBFC
FF7C
FF7C
FE7C
FE7C
FC7C
7FF8
3FF0
0FC0
ENDCHAR
STARTCHAR ugrave
ENCODING 249
SWIDTH 529 0
DWIDTH 17 0
BBX 13 23 2 0
BITMAP
0C00
1F00
1F80
0FC0
03C0
0000
0000
7070
F8F8
F8F8
F8F8
F8F8
F8F8
F8F8
F8F8
F8F8
F8F8
F8F8
F9F8
FFF8
7FF8
7EF8
1E70
ENDCHAR
STARTCHAR uacute
ENCODING 250
SWIDTH 529 0
DWIDTH 17 0
BBX 13 23 2 0
BITMAP
0180
07C0
0FC0
1F80
1E00
0000
0000
7070
F8F8
F8F8
F8F8
F8F8
F8F8
F8F8
F8F8
F8F8
F8F8
F8F8
F9F8
FFF8
7FF8
7EF8
1E70
ENDCHAR
STARTCHAR ucircumflex
ENCODING 251
SWIDTH 529 0
DWIDTH 17 0
BBX 13 23 2 0
BITMAP
0700
0F80
1FC0
3FE0
3DE0
18C0
0000
0000
7070
F8F8
F8F8
F8F8
F8F8
F8F8
F8F8
F8F8
F8F8
F8F8
F9F8
FFF8
7FF8
7EF8
1E70
ENDCHAR
STARTCHAR udieresis
ENCODING 252
SWIDTH 529 0
DWIDTH 17 0
BBX 13 22 2 0
BITMAP
38E0
7DF0
7DF0
7DF0
38E0
0000
7070
F8F8
F8F8
F8F8
F8F8
F8F8
F8F8
F8F8
F8F8
F8F8
F8F8
F9F8
FFF8
7FF8
7EF8
1C70
ENDCHAR
STARTCHAR yacute
ENCODING 253
SWIDTH 447 0
DWIDTH 14 0
BBX 14 29 0 -6
BITMAP
00C0
03E0
0FE0
0F80
0F00
0000
0000
7038
783C
F87C
7C7C
7C78
7CF8
3EF8
3EF0
1FF0
1FE0
1FE0
0FE0
0FC0
07C0
07C0
0F80
0F80
1F00
7F00
FE00
FC00
7800
ENDCHAR
STARTCHAR thorn
ENCODING 254
SWIDTH 572 0
DWIDTH 18 0
BBX 13 28 3 -6
BITMAP
7000
F800
F800
F800
F800
F800
FBC0
FBF0
FFF0
FFF8
FCF8
F8F8
F8F8
F8F8
F8F8
F8F8
F8F8
FCF8
FFF8
FFF0
FBF0
FBC0
F800
F800
F800
F800
F800
7000
ENDCHAR
STARTCHAR ydieresis
ENCODING 255
SWIDTH 447 0
DWIDTH 14 0
BBX 13 28 1 -6
BITMAP
38E0
7DF0
7DF0
7DF0
38E0
0000
E038
F078
F878
F8F8
F8F8
78F0
7DF0
7DF0
3DE0
3FE0
1FC0
1FC0
1FC0
0F80
0F80
0F00
1F00
1F00
FE00
FC00
FC00
F000
ENDCHAR
STARTCHAR Amacron
ENCODING 256
SWIDTH 539 0
DWIDTH 17 0
BBX 15 28 1 0
BITMAP
3FF8
7FFC
7FFC
3FF8
0000
0000
07C0
0FE0
1FF0
1FF0
1FF0
1EF0
3EF8
3EF8
3C78
7C7C
7C7C
783C
F83E
FFFE
FFFE
FFFE
FFFE
F01E
F01E
F01E
F01E
600C
ENDCHAR
STARTCHAR amacron
ENCODING 257
SWIDTH 498 0
DWIDTH 16 0
BBX 14 22 1 0
BITMAP
3FF0
3FF8
3FF8
3FF0
0000
0000
1E38
7F7C
7FFC
FFFC
F8FC
F87C
F87C
F87C
F87C
F87C
F87C
F8FC
FFFC
7FFC
7F7C
1E38
ENDCHAR
STARTCHAR Ccaron
ENCODING 268
SWIDTH 541 0
DWIDTH 17 0
BBX 15 30 1 0
BITMAP
0C30
1EF8
1FF0
0FE0
07C0
0380
0000
0000
07E0
1FF8
7FFC
7FFC
FC7E
F83E
F83E
F83E
F83E
F800
F800
F800
F800
F83E
F83E
F83E
F83E
FC7C
7FFC
7FF8
3FF0
0FC0
ENDCHAR
STARTCHAR ccaron
ENCODING 269
SWIDTH 488 0
DWIDTH 16 0
BBX 14 23 1 0
BITMAP
1860
3CF0
3FF0
1FE0
0FC0
0780
0000
0FC0
3FF0
7FF8
FFFC
F87C
F87C
F878
F800
F800
F838
F87C
F87C
FC7C
7FF8
3FF0
0FC0
ENDCHAR
STARTCHAR Emacron
ENCODING 274
SWIDTH 481 0
DWIDTH 15 0
BBX 12 28 2 0
BITMAP
7FE0
FFE0
FFE0
7FE0
0000
0000
7FF0
FFF0
FFF0
FFF0
F800
F800
F800
F800
F800
FFC0
FFC0
FFC0
FFC0
F800
F800
F800
F800
F800
FFF0
FFF0
FFF0
7FF0
ENDCHAR
STARTCHAR emacron
ENCODING 275
SWIDTH 498 0
DWIDTH 16 0
BBX 13 22 1 0
BITMAP
3FF0
7FF8
7FF8
3FF0
0000
0000
1FC0
3FE0
7FF0
FCF8
F878
F878
F878
FFF8
FFF8
F800
F800
F878
FCF8
7FF8
3FF0
1FC0
ENDCHAR
STARTCHAR dotlessi
ENCODING 305
SWIDTH 305 0
DWIDTH 10 0
BBX 5 16 2 0
BITMAP
70
F8
F8
F8
F8
F8
F8
F8
F8
F8
F8
F8
F8
F8
F8
70
ENDCHAR
STARTCHAR Scaron
ENCODING 352
SWIDTH 495 0
DWIDTH 16 0
BBX 13 30 2 0
BITMAP
38C0
3DE0
3FE0
1FC0
0F80
0700
0000
0000
1F80
7FE0
7FF0
F8F0
F8F0
F8F0
F870
FC00
7F00
3F80
1FE0
0FF0
03F0
01F8
70F8
F8F8
F8F8
F8F8
7FF8
7FF0
3FE0
0FC0
ENDCHAR
STARTCHAR scaron
ENCODING 353
SWIDTH 444 0
DWIDTH 14 0
BBX 12 23 1 0
BITMAP
38E0
3DE0
3FE0
1FC0
0F80
0700
0000
1FC0
7FE0
FFF0
F8F0
F8F0
FCE0
7F00
3FC0
1FE0
07F0
E3F0
F1F0
F1F0
FFE0
7FE0
1F80
ENDCHAR
STARTCHAR Ydieresis
ENCODING 376
SWIDTH 488 0
DWIDTH 16 0
BBX 17 28 -1 0
BITMAP
0E1C00
1F3E00
1F3E00
1F3E00
0E1C00
000000
700700
F80F80
F80F80
7C1F00
7C1F00
3E3E00
3E3E00
1F7C00
0FFC00
0FF800
07F000
07F000
03E000
03E000
03E000
03E000
03E000
03E000
03E000
03E000
03E000
01C000
ENDCHAR
STARTCHAR Zcaron
ENCODING 381
SWIDTH 508 0
DWIDTH 16 0
BBX 14 30 1 0
BITMAP
1860
3CF0
1FF0
0FE0
07C0
0380
0000
0000
7FF8
FFFC
FFFC
7FFC
00F8
00F8
01F0
01F0
03E0
07E0
07C0
0FC0
0F80
1F00
1F00
3E00
3E00
7C00
FFFC
FFFC
FFFC
7FFC
ENDCHAR
STARTCHAR zcaron
ENCODING 382
SWIDTH 447 0
DWIDTH 14 0
BBX 12 23 1 0
BITMAP
30C0
79E0
7FE0
3FC0
1F80
0600
0000
7FE0
FFF0
FFF0
7FF0
03E0
07C0
07C0
0F80
1F00
1F00
3E00
7C00
7FF0
FFF0
FFF0
7FF0
ENDCHAR
STARTCHAR circumflex
ENCODING 710
SWIDTH 424 0
DWIDTH 14 0
BBX 10 6 2 17
BITMAP
1C00
3E00
7F00
FF80
F7C0
6380
ENDCHAR
STARTCHAR caron
ENCODING 711
SWIDTH 440 0
DWIDTH 14 0
BBX 10 6 2 17
BITMAP
6180
F7C0
FF80
7F00
3E00
1C00
ENDCHAR
STARTCHAR breve
ENCODING 728
SWIDTH 420 0
DWIDTH 13 0
BBX 9 5 2 17
BITMAP
E380
E380
E380
7F00
3E00
ENDCHAR
STARTCHAR dotaccent
ENCODING 729
SWIDTH 280 0
DWIDTH 9 0
BBX 5 5 2 18
BITMAP
70
F8
F8
F8
70
ENDCHAR
STARTCHAR ring
ENCODING 730
SWIDTH 323 0
DWIDTH 11 0
BBX 8 7 1 15
BITMAP
3E
FF
C3
C3
C3
FF
3C
ENDCHAR
STARTCHAR ogonek
ENCODING 731
SWIDTH 403 0
DWIDTH 13 0
BBX 8 8 2 -6
BITMAP
1C
78
70
E0
E7
E7
FF
3E
ENDCHAR
STARTCHAR tilde
ENCODING 732
SWIDTH 451 0
DWIDTH 14 0
BBX 10 5 2 17
BITMAP
38C0
7FC0
FFC0
FF80
C700
ENDCHAR
STARTCHAR hungarumlaut
ENCODING 733
SWIDTH 527 0
DWIDTH 17 0
BBX 13 7 2 17
BITMAP
1870
3C70
3CF8
79F0
F9E0
F1E0
70C0
ENDCHAR
STARTCHAR endash
ENCODING 8211
SWIDTH 486 0
DWIDTH 16 0
BBX 12 4 2 7
BITMAP
7FE0
FFF0
FFF0
7FE0
ENDCHAR
STARTCHAR emdash
ENCODING 8212
SWIDTH 833 0
DWIDTH 27 0
BBX 21 4 3 7
BITMAP
FFFFF0
FFFFF8
FFFFF8
FFFFF0
ENDCHAR
STARTCHAR quoteleft
ENCODING 8216
SWIDTH 375 0
DWIDTH 12 0
BBX 5 8 3 14
BITMAP
20
70
E0
F0
F8
F8
F8
70
ENDCHAR
STARTCHAR quoteright
ENCODING 8217
SWIDTH 338 0
DWIDTH 11 0
BBX 5 8 3 14
BITMAP
70
F8
F8
F8
78
38
30
60
ENDCHAR
STARTCHAR quotesinglbase
ENCODING 8218
SWIDTH 289 0
DWIDTH 9 0
BBX 4 8 2 0
BITMAP
E0
F0
F0
F0
F0
F0
F0
F0
ENDCHAR
STARTCHAR quotedblleft
ENCODING 8220
SWIDTH 574 0
DWIDTH 18 0
BBX 12 8 3 14
BITMAP
2040
70E0
E1C0
F1E0
F9F0
F9F0
F9F0
70E0
ENDCHAR
STARTCHAR quotedblright
ENCODING 8221
SWIDTH 572 0
DWIDTH 19 0
BBX 12 8 3 14
BITMAP
70E0
F9F0
F9F0
F9F0
78F0
3870
3060
60C0
ENDCHAR
STARTCHAR quotedblbase
ENCODING 8222
SWIDTH 547 0
DWIDTH 18 0
BBX 12 8 3 -3
BITMAP
70E0
F9F0
F9F0
F9F0
78F0
3870
3060
60C0
ENDCHAR
STARTCHAR bullet
ENCODING 8226
SWIDTH 504 0
DWIDTH 16 0
BBX 8 8 4 6
BITMAP
3E
7F
FF
FF
FF
FF
7F
3C
ENDCHAR
STARTCHAR ellipsis
ENCODING 8230
SWIDTH 839 0
DWIDTH 27 0
BBX 23 5 2 0
BITMAP
70381C
F87C3E
F87C3E
F87C3E
70381C
ENDCHAR
STARTCHAR guilsinglleft
ENCODING 8249
SWIDTH 505 0
DWIDTH 16 0
BBX 9 15 4 2
BITMAP
6000
F000
F800
7C00
3E00
1F00
0F80
0780
0F80
1F00
3E00
7C00
F800
F000
6000
ENDCHAR
STARTCHAR guilsinglright
ENCODING 8250
SWIDTH 500 0
DWIDTH 16 0
BBX 9 15 3 2
BITMAP
0300
0780
0F80
1F80
3F00
7E00
FC00
F800
FC00
7E00
3F00
1F80
0F80
0780
0300
ENDCHAR
STARTCHAR fraction
ENCODING 8260
SWIDTH 458 0
DWIDTH 15 0
BBX 9 2 3 10
BITMAP
FF80
FF80
ENDCHAR
STARTCHAR foursuperior
ENCODING 8308
SWIDTH 318 0
DWIDTH 10 0
BBX 5 9 3 13
BITMAP
60
60
40
D8
D8
F8
F8
18
18
ENDCHAR
STARTCHAR twoinferior
ENCODING 8322
SWIDTH 449 0
DWIDTH 14 0
BBX 6 9 5 0
BITMAP
78
FC
CC
CC
38
E0
C0
FC
FC
ENDCHAR
STARTCHAR fourinferior
ENCODING 8324
SWIDTH 451 0
DWIDTH 14 0
BBX 6 9 4 0
BITMAP
30
30
60
6C
6C
7C
FC
0C
0C
ENDCHAR
STARTCHAR Euro
ENCODING 8364
SWIDTH 549 0
DWIDTH 18 0
BBX 18 22 0 0
BITMAP
00FC00
03FF00
07FF80
07FF80
0F87C0
0F03C0
0F0380
0F0000
FFF800
FFF800
FFF800
0F0000
FFF800
FFF800
FFF800
0F0380
0F03C0
0F87C0
07FF80
07FF80
03FF00
00FC00
ENDCHAR
STARTCHAR minus
ENCODING 8722
SWIDTH 506 0
DWIDTH 16 0
BBX 11 4 2 9
BITMAP
FFE0
FFE0
FFE0
FFE0
ENDCHAR
STARTCHAR divisionslash
ENCODING 8725
SWIDTH 492 0
DWIDTH 16 0
BBX 13 22 1 0
BITMAP
0038
0038
0078
0078
00F0
01F0
01E0
03E0
03C0
07C0
0780
0F80
0F00
1F00
1E00
3E00
3C00
7C00
7800
F800
F000
6000
ENDCHAR
STARTCHAR .notdef
ENCODING -1
SWIDTH 636 0
DWIDTH 21 0
BBX 13 22 4 0
BITMAP
FFF8
FFF8
FFF8
F078
F078
F078
F078
F078
F078
F078
F078
F078
F078
F078
F078
F078
F078
F078
F078
FFF8
FFF8
FFF8
ENDCHAR
STARTCHAR .null
ENCODING -1
SWIDTH 0 0
DWIDTH 0 0
BBX 1 1 0 0
BITMAP
00
ENDCHAR
STARTCHAR nonmarkingreturn
ENCODING -1
SWIDTH 488 0
DWIDTH 16 0
BBX 1 1 0 0
BITMAP
00
ENDCHAR
ENDFONT
